# xmcd CD database file
#
# Track frame offsets:
#	150
#	12012
#	25225
#	37925
#	50525
#	63350
#	74962
#	86587
#	99500
#	112100
#	124150
#	135450
#
# Disc length: 1977 seconds
#
# Revision: 1
# Processed by: cddbd v1.5.1PL2 Copyright (c) Steve Scherf et al.
# Submitted via: CDex 1.51
#
DISCID=a307b70c
DTITLE=Roy Acuff - 36 All-Time Favorites [CD1]
DYEAR=1900
DGENRE=Country
TTITLE0=Wabash Cannonball
TTITLE1=Great speckle bird
TTITLE2=The Precious Jewel
TTITLE3=Wreck On The Highway
TTITLE4=Night Train To Memphis
TTITLE5=Fire Ball Mail
TTITLE6=Low And Lonely
TTITLE7=Mule Skinner Blues
TTITLE8=Prodigal Son
TTITLE9=I'll Forgive You, But I Can't Forget You
TTITLE10=Write Me Sweetheart
TTITLE11=Jole Blon
EXTD=
EXTT0=
EXTT1=
EXTT2=
EXTT3=
EXTT4=
EXTT5=
EXTT6=
EXTT7=
EXTT8=
EXTT9=
EXTT10=
EXTT11=
PLAYORDER=
